<svg width="82" height="82" viewBox="0 0 82 82" fill="none" xmlns="http://www.w3.org/2000/svg">
<g clip-path="url(#clip0_2_23)">
<path d="M41 0C43.8348 0 46.125 2.29023 46.125 5.125V6.79063C61.1316 9.0168 72.9832 20.8844 75.2094 35.875H76.875C79.7098 35.875 82 38.1652 82 41C82 43.8348 79.7098 46.125 76.875 46.125H75.2094C72.9832 61.1316 61.1156 72.9832 46.125 75.2094V76.875C46.125 79.7098 43.8348 82 41 82C38.1652 82 35.875 79.7098 35.875 76.875V75.2094C20.8684 72.9832 9.0168 61.1316 6.79063 46.125H5.125C2.29023 46.125 0 43.8348 0 41C0 38.1652 2.29023 35.875 5.125 35.875H6.79063C9.0168 20.8684 20.8684 9.0168 35.875 6.79063V5.125C35.875 2.29023 38.1652 0 41 0ZM17.2008 46.125C19.2027 55.4621 26.5539 62.7973 35.875 64.7992V61.5C35.875 58.6652 38.1652 56.375 41 56.375C43.8348 56.375 46.125 58.6652 46.125 61.5V64.7992C55.4621 62.7973 62.7973 55.4461 64.7992 46.125H61.5C58.6652 46.125 56.375 43.8348 56.375 41C56.375 38.1652 58.6652 35.875 61.5 35.875H64.7992C62.7973 26.5379 55.4621 19.2027 46.125 17.2008V20.5C46.125 23.3348 43.8348 25.625 41 25.625C38.1652 25.625 35.875 23.3348 35.875 20.5V17.2008C26.5379 19.2027 19.2027 26.5379 17.2008 35.875H20.5C23.3348 35.875 25.625 38.1652 25.625 41C25.625 43.8348 23.3348 46.125 20.5 46.125H17.2008ZM41 35.875C42.3592 35.875 43.6628 36.415 44.6239 37.3761C45.585 38.3372 46.125 39.6408 46.125 41C46.125 42.3592 45.585 43.6628 44.6239 44.6239C43.6628 45.585 42.3592 46.125 41 46.125C39.6408 46.125 38.3372 45.585 37.3761 44.6239C36.415 43.6628 35.875 42.3592 35.875 41C35.875 39.6408 36.415 38.3372 37.3761 37.3761C38.3372 36.415 39.6408 35.875 41 35.875Z" fill="#B27FB2"/>
</g>
<defs>
<clipPath id="clip0_2_23">
<rect width="82" height="82" fill="white"/>
</clipPath>
</defs>
</svg>
