<svg width="82" height="82" viewBox="0 0 82 82" fill="none" xmlns="http://www.w3.org/2000/svg">
<path d="M73.5277 8.39219L70.8852 1.04102C70.5809 0.416406 69.9082 0 69.2035 0C68.4988 0 67.8422 0.416406 67.5379 1.04102L64.8953 8.39219L57.5281 11.0828C56.8395 11.3391 56.359 12.0277 56.375 12.7484C56.375 13.4691 56.8555 14.1418 57.5281 14.382L64.8473 17.0727L67.5379 24.4078C67.7781 25.1125 68.4668 25.609 69.2035 25.609C69.9402 25.609 70.6289 25.1125 70.8691 24.4078L73.5117 17.0727L80.8309 14.382C81.5035 14.1418 81.984 13.4691 81.984 12.7484C81.984 12.0117 81.5035 11.323 80.8309 11.0828L73.5277 8.39219ZM52.323 16.8805C50.3211 14.8785 47.0699 14.8785 45.068 16.8805L44.6035 17.3449C41.0801 16.0637 37.2684 15.375 33.3125 15.375C14.9105 15.375 0 30.2855 0 48.6875C0 67.0895 14.9105 82 33.3125 82C51.7145 82 66.625 67.0895 66.625 48.6875C66.625 44.7316 65.9363 40.9199 64.6711 37.3965L65.1356 36.932C67.1375 34.9301 67.1375 31.6789 65.1356 29.677L52.323 16.8645V16.8805ZM32.0312 30.75C22.8383 30.75 15.375 38.2133 15.375 47.4062V48.6875C15.375 50.0969 14.2219 51.25 12.8125 51.25C11.4031 51.25 10.25 50.0969 10.25 48.6875V47.4062C10.25 35.3785 20.0035 25.625 32.0312 25.625H33.3125C34.7219 25.625 35.875 26.7781 35.875 28.1875C35.875 29.5969 34.7219 30.75 33.3125 30.75H32.0312Z" fill="#B27FB2"/>
</svg>
