<svg width="254" height="203" viewBox="0 0 254 203" fill="none" xmlns="http://www.w3.org/2000/svg">
<g clip-path="url(#clip0_3_194)">
<path d="M35.0041 122.553C38.8934 115.298 37.7028 106.377 32.0275 100.429C23.5741 91.5482 19.0497 80.8828 19.0497 69.7812C19.0497 44.6045 44.3703 19.0312 82.5497 19.0312C120.729 19.0312 146.05 44.6045 146.05 69.7812C146.05 94.958 120.729 120.531 82.5497 120.531C77.3506 120.531 72.3103 120.016 67.5478 119.104C63.4203 118.311 59.1341 118.866 55.3638 120.769C53.7366 121.602 52.0697 122.395 50.3631 123.148C44.0131 126.003 37.3059 128.501 30.5591 130.285C31.6703 128.461 32.7022 126.677 33.6944 124.893C34.1309 124.139 34.5675 123.346 34.9644 122.553H35.0041ZM-0.000306726 69.7812C-0.000306726 86.3543 6.82594 101.54 18.2163 113.513C17.8591 114.187 17.4622 114.901 17.105 115.536C13.0172 122.831 8.25469 130.007 2.57938 136.192C-0.0399942 138.968 -0.714682 143.012 0.753756 146.461C2.30157 149.99 5.71469 152.25 9.52469 152.25C26.5903 152.25 43.8544 146.977 58.2213 140.474C60.1263 139.602 62.0313 138.69 63.8569 137.778C69.8497 138.968 76.1203 139.562 82.5497 139.562C128.151 139.562 165.1 108.32 165.1 69.7812C165.1 31.243 128.151 0 82.5497 0C36.9488 0 -0.000306726 31.243 -0.000306726 69.7812ZM171.45 190.312C177.879 190.312 184.11 189.678 190.143 188.528C191.968 189.44 193.873 190.352 195.778 191.224C210.145 197.727 227.409 203 244.475 203C248.285 203 251.698 200.74 253.206 197.251C254.714 193.762 254 189.718 251.38 186.982C245.745 180.797 240.982 173.621 236.855 166.325C236.497 165.651 236.101 164.977 235.743 164.303C247.173 152.29 254 137.104 254 120.531C254 83.1031 219.114 52.5342 175.339 50.8293C176.966 56.8559 177.8 63.1996 177.8 69.7812V70.0191C212.407 72.6756 234.95 96.7818 234.95 120.531C234.95 131.633 230.425 142.298 221.972 151.14C216.297 157.087 215.106 166.048 218.995 173.264C219.432 174.057 219.868 174.85 220.265 175.603C221.257 177.387 222.329 179.171 223.401 180.995C216.654 179.211 209.947 176.753 203.597 173.858C201.89 173.105 200.223 172.312 198.596 171.479C194.826 169.576 190.539 169.021 186.412 169.814C181.61 170.766 176.609 171.242 171.41 171.242C146.923 171.242 127.754 160.735 117.118 146.541C110.768 148.682 104.1 150.268 97.2738 151.219C110.728 174.374 138.906 190.312 171.45 190.312Z" fill="#B27FB2"/>
</g>
<defs>
<clipPath id="clip0_3_194">
<rect width="254" height="203" fill="white"/>
</clipPath>
</defs>
</svg>
